<svg width="442" height="446" viewBox="0 0 442 446" fill="none" xmlns="http://www.w3.org/2000/svg">
<path d="M367.083 4.02241C388.848 2.72906 384.891 57.6961 372.359 97.7898C359.168 137.883 336.744 162.457 353.892 196.731C371.7 231.004 428.421 275.624 436.995 307.311C444.909 339.645 404.677 359.045 365.764 388.792C326.191 418.539 288.597 458.633 264.853 434.706C241.109 411.426 231.216 324.772 194.941 293.085C159.326 262.044 97.3283 285.325 60.3936 276.918C23.459 268.511 10.9276 227.771 6.3108 184.444C1.03442 140.47 3.01306 94.5564 31.3736 70.6296C59.0745 46.0561 112.498 44.116 153.39 56.4028C194.282 68.0429 222.642 93.2631 260.236 77.743C297.831 61.5762 344.658 4.66908 367.083 4.02241Z" stroke="#C5A1FF" stroke-width="8"/>
</svg>
