<svg width="1618" height="948" viewBox="0 0 1618 948" fill="none" xmlns="http://www.w3.org/2000/svg">
<g clip-path="url(#clip0_247_29279)">
<circle cx="2.5" cy="2.5" r="2.5" fill="black" fill-opacity="0.2"/>
<circle cx="67.5" cy="2.5" r="2.5" fill="black" fill-opacity="0.2"/>
<circle cx="132.5" cy="2.5" r="2.5" fill="black" fill-opacity="0.2"/>
<circle cx="197.5" cy="2.5" r="2.5" fill="black" fill-opacity="0.2"/>
<circle cx="262.5" cy="2.5" r="2.5" fill="black" fill-opacity="0.2"/>
<circle cx="327.5" cy="2.5" r="2.5" fill="black" fill-opacity="0.2"/>
<circle cx="392.5" cy="2.5" r="2.5" fill="black" fill-opacity="0.2"/>
<circle cx="457.5" cy="2.5" r="2.5" fill="black" fill-opacity="0.2"/>
<circle cx="522.5" cy="2.5" r="2.5" fill="black" fill-opacity="0.2"/>
<circle cx="587.5" cy="2.5" r="2.5" fill="black" fill-opacity="0.2"/>
<circle cx="652.5" cy="2.5" r="2.5" fill="black" fill-opacity="0.2"/>
<circle cx="717.5" cy="2.5" r="2.5" fill="black" fill-opacity="0.2"/>
<circle cx="782.5" cy="2.5" r="2.5" fill="black" fill-opacity="0.2"/>
<circle cx="847.5" cy="2.5" r="2.5" fill="black" fill-opacity="0.2"/>
<circle cx="912.5" cy="2.5" r="2.5" fill="black" fill-opacity="0.2"/>
<circle cx="977.5" cy="2.5" r="2.5" fill="black" fill-opacity="0.2"/>
<circle cx="1042.5" cy="2.5" r="2.5" fill="black" fill-opacity="0.2"/>
<circle cx="1107.5" cy="2.5" r="2.5" fill="black" fill-opacity="0.2"/>
<circle cx="1172.5" cy="2.5" r="2.5" fill="black" fill-opacity="0.2"/>
<circle cx="1237.5" cy="2.5" r="2.5" fill="black" fill-opacity="0.2"/>
<circle cx="1302.5" cy="2.5" r="2.5" fill="black" fill-opacity="0.2"/>
<circle cx="1367.5" cy="2.5" r="2.5" fill="black" fill-opacity="0.2"/>
<circle cx="1432.5" cy="2.5" r="2.5" fill="black" fill-opacity="0.2"/>
<circle cx="1497.5" cy="2.5" r="2.5" fill="black" fill-opacity="0.2"/>
<circle cx="1562.5" cy="2.5" r="2.5" fill="black" fill-opacity="0.2"/>
<circle cx="2.5" cy="67.5" r="2.5" fill="black" fill-opacity="0.2"/>
<circle cx="67.5" cy="67.5" r="2.5" fill="black" fill-opacity="0.2"/>
<circle cx="132.5" cy="67.5" r="2.5" fill="black" fill-opacity="0.2"/>
<circle cx="197.5" cy="67.5" r="2.5" fill="black" fill-opacity="0.2"/>
<circle cx="262.5" cy="67.5" r="2.5" fill="black" fill-opacity="0.2"/>
<circle cx="327.5" cy="67.5" r="2.5" fill="black" fill-opacity="0.2"/>
<circle cx="392.5" cy="67.5" r="2.5" fill="black" fill-opacity="0.2"/>
<circle cx="457.5" cy="67.5" r="2.5" fill="black" fill-opacity="0.2"/>
<circle cx="522.5" cy="67.5" r="2.5" fill="black" fill-opacity="0.2"/>
<circle cx="587.5" cy="67.5" r="2.5" fill="black" fill-opacity="0.2"/>
<circle cx="652.5" cy="67.5" r="2.5" fill="black" fill-opacity="0.2"/>
<circle cx="717.5" cy="67.5" r="2.5" fill="black" fill-opacity="0.2"/>
<circle cx="782.5" cy="67.5" r="2.5" fill="black" fill-opacity="0.2"/>
<circle cx="847.5" cy="67.5" r="2.5" fill="black" fill-opacity="0.2"/>
<circle cx="912.5" cy="67.5" r="2.5" fill="black" fill-opacity="0.2"/>
<circle cx="977.5" cy="67.5" r="2.5" fill="black" fill-opacity="0.2"/>
<circle cx="1042.5" cy="67.5" r="2.5" fill="black" fill-opacity="0.2"/>
<circle cx="1107.5" cy="67.5" r="2.5" fill="black" fill-opacity="0.2"/>
<circle cx="1172.5" cy="67.5" r="2.5" fill="black" fill-opacity="0.2"/>
<circle cx="1237.5" cy="67.5" r="2.5" fill="black" fill-opacity="0.2"/>
<circle cx="1302.5" cy="67.5" r="2.5" fill="black" fill-opacity="0.2"/>
<circle cx="1367.5" cy="67.5" r="2.5" fill="black" fill-opacity="0.2"/>
<circle cx="1432.5" cy="67.5" r="2.5" fill="black" fill-opacity="0.2"/>
<circle cx="1497.5" cy="67.5" r="2.5" fill="black" fill-opacity="0.2"/>
<circle cx="1562.5" cy="67.5" r="2.5" fill="black" fill-opacity="0.2"/>
<circle cx="2.5" cy="132.5" r="2.5" fill="black" fill-opacity="0.2"/>
<circle cx="67.5" cy="132.5" r="2.5" fill="black" fill-opacity="0.2"/>
<circle cx="132.5" cy="132.5" r="2.5" fill="black" fill-opacity="0.2"/>
<circle cx="197.5" cy="132.5" r="2.5" fill="black" fill-opacity="0.2"/>
<circle cx="262.5" cy="132.5" r="2.5" fill="black" fill-opacity="0.2"/>
<circle cx="327.5" cy="132.5" r="2.5" fill="black" fill-opacity="0.2"/>
<circle cx="392.5" cy="132.5" r="2.5" fill="black" fill-opacity="0.2"/>
<circle cx="457.5" cy="132.5" r="2.5" fill="black" fill-opacity="0.2"/>
<circle cx="522.5" cy="132.5" r="2.5" fill="black" fill-opacity="0.2"/>
<circle cx="587.5" cy="132.5" r="2.5" fill="black" fill-opacity="0.2"/>
<circle cx="652.5" cy="132.5" r="2.5" fill="black" fill-opacity="0.2"/>
<circle cx="717.5" cy="132.5" r="2.5" fill="black" fill-opacity="0.2"/>
<circle cx="782.5" cy="132.5" r="2.5" fill="black" fill-opacity="0.2"/>
<circle cx="847.5" cy="132.5" r="2.5" fill="black" fill-opacity="0.2"/>
<circle cx="912.5" cy="132.5" r="2.5" fill="black" fill-opacity="0.2"/>
<circle cx="977.5" cy="132.5" r="2.5" fill="black" fill-opacity="0.2"/>
<circle cx="1042.5" cy="132.5" r="2.5" fill="black" fill-opacity="0.2"/>
<circle cx="1107.5" cy="132.5" r="2.5" fill="black" fill-opacity="0.2"/>
<circle cx="1172.5" cy="132.5" r="2.5" fill="black" fill-opacity="0.2"/>
<circle cx="1237.5" cy="132.5" r="2.5" fill="black" fill-opacity="0.2"/>
<circle cx="1302.5" cy="132.5" r="2.5" fill="black" fill-opacity="0.2"/>
<circle cx="1367.5" cy="132.5" r="2.5" fill="black" fill-opacity="0.2"/>
<circle cx="1432.5" cy="132.5" r="2.5" fill="black" fill-opacity="0.2"/>
<circle cx="1497.5" cy="132.5" r="2.5" fill="black" fill-opacity="0.2"/>
<circle cx="1562.5" cy="132.5" r="2.5" fill="black" fill-opacity="0.2"/>
<circle cx="2.5" cy="197.5" r="2.5" fill="black" fill-opacity="0.2"/>
<circle cx="67.5" cy="197.5" r="2.5" fill="black" fill-opacity="0.2"/>
<circle cx="132.5" cy="197.5" r="2.5" fill="black" fill-opacity="0.2"/>
<circle cx="197.5" cy="197.5" r="2.5" fill="black" fill-opacity="0.2"/>
<circle cx="262.5" cy="197.5" r="2.5" fill="black" fill-opacity="0.2"/>
<circle cx="327.5" cy="197.5" r="2.5" fill="black" fill-opacity="0.2"/>
<circle cx="392.5" cy="197.5" r="2.5" fill="black" fill-opacity="0.2"/>
<circle cx="457.5" cy="197.5" r="2.5" fill="black" fill-opacity="0.2"/>
<circle cx="522.5" cy="197.5" r="2.5" fill="black" fill-opacity="0.2"/>
<circle cx="587.5" cy="197.5" r="2.5" fill="black" fill-opacity="0.2"/>
<circle cx="652.5" cy="197.5" r="2.5" fill="black" fill-opacity="0.2"/>
<circle cx="717.5" cy="197.5" r="2.5" fill="black" fill-opacity="0.2"/>
<circle cx="782.5" cy="197.5" r="2.5" fill="black" fill-opacity="0.2"/>
<circle cx="847.5" cy="197.5" r="2.5" fill="black" fill-opacity="0.2"/>
<circle cx="912.5" cy="197.5" r="2.5" fill="black" fill-opacity="0.2"/>
<circle cx="977.5" cy="197.5" r="2.5" fill="black" fill-opacity="0.2"/>
<circle cx="1042.5" cy="197.5" r="2.5" fill="black" fill-opacity="0.2"/>
<circle cx="1107.5" cy="197.5" r="2.5" fill="black" fill-opacity="0.2"/>
<circle cx="1172.5" cy="197.5" r="2.5" fill="black" fill-opacity="0.2"/>
<circle cx="1237.5" cy="197.5" r="2.5" fill="black" fill-opacity="0.2"/>
<circle cx="1302.5" cy="197.5" r="2.5" fill="black" fill-opacity="0.2"/>
<circle cx="1367.5" cy="197.5" r="2.5" fill="black" fill-opacity="0.2"/>
<circle cx="1432.5" cy="197.5" r="2.5" fill="black" fill-opacity="0.2"/>
<circle cx="1497.5" cy="197.5" r="2.5" fill="black" fill-opacity="0.2"/>
<circle cx="1562.5" cy="197.5" r="2.5" fill="black" fill-opacity="0.2"/>
<circle cx="2.5" cy="262.5" r="2.5" fill="black" fill-opacity="0.2"/>
<circle cx="67.5" cy="262.5" r="2.5" fill="black" fill-opacity="0.2"/>
<circle cx="132.5" cy="262.5" r="2.5" fill="black" fill-opacity="0.2"/>
<circle cx="197.5" cy="262.5" r="2.5" fill="black" fill-opacity="0.2"/>
<circle cx="262.5" cy="262.5" r="2.5" fill="black" fill-opacity="0.2"/>
<circle cx="327.5" cy="262.5" r="2.5" fill="black" fill-opacity="0.2"/>
<circle cx="392.5" cy="262.5" r="2.5" fill="black" fill-opacity="0.2"/>
<circle cx="457.5" cy="262.5" r="2.5" fill="black" fill-opacity="0.2"/>
<circle cx="522.5" cy="262.5" r="2.5" fill="black" fill-opacity="0.2"/>
<circle cx="587.5" cy="262.5" r="2.5" fill="black" fill-opacity="0.2"/>
<circle cx="652.5" cy="262.5" r="2.5" fill="black" fill-opacity="0.2"/>
<circle cx="717.5" cy="262.5" r="2.5" fill="black" fill-opacity="0.2"/>
<circle cx="782.5" cy="262.5" r="2.5" fill="black" fill-opacity="0.2"/>
<circle cx="847.5" cy="262.5" r="2.5" fill="black" fill-opacity="0.2"/>
<circle cx="912.5" cy="262.5" r="2.5" fill="black" fill-opacity="0.2"/>
<circle cx="977.5" cy="262.5" r="2.5" fill="black" fill-opacity="0.2"/>
<circle cx="1042.5" cy="262.5" r="2.5" fill="black" fill-opacity="0.2"/>
<circle cx="1107.5" cy="262.5" r="2.5" fill="black" fill-opacity="0.2"/>
<circle cx="1172.5" cy="262.5" r="2.5" fill="black" fill-opacity="0.2"/>
<circle cx="1237.5" cy="262.5" r="2.5" fill="black" fill-opacity="0.2"/>
<circle cx="1302.5" cy="262.5" r="2.5" fill="black" fill-opacity="0.2"/>
<circle cx="1367.5" cy="262.5" r="2.5" fill="black" fill-opacity="0.2"/>
<circle cx="1432.5" cy="262.5" r="2.5" fill="black" fill-opacity="0.2"/>
<circle cx="1497.5" cy="262.5" r="2.5" fill="black" fill-opacity="0.2"/>
<circle cx="1562.5" cy="262.5" r="2.5" fill="black" fill-opacity="0.2"/>
<circle cx="2.5" cy="327.5" r="2.5" fill="black" fill-opacity="0.2"/>
<circle cx="67.5" cy="327.5" r="2.5" fill="black" fill-opacity="0.2"/>
<circle cx="132.5" cy="327.5" r="2.5" fill="black" fill-opacity="0.2"/>
<circle cx="197.5" cy="327.5" r="2.5" fill="black" fill-opacity="0.2"/>
<circle cx="262.5" cy="327.5" r="2.5" fill="black" fill-opacity="0.2"/>
<circle cx="327.5" cy="327.5" r="2.5" fill="black" fill-opacity="0.2"/>
<circle cx="392.5" cy="327.5" r="2.5" fill="black" fill-opacity="0.2"/>
<circle cx="457.5" cy="327.5" r="2.5" fill="black" fill-opacity="0.2"/>
<circle cx="522.5" cy="327.5" r="2.5" fill="black" fill-opacity="0.2"/>
<circle cx="587.5" cy="327.5" r="2.5" fill="black" fill-opacity="0.2"/>
<circle cx="652.5" cy="327.5" r="2.5" fill="black" fill-opacity="0.2"/>
<circle cx="717.5" cy="327.5" r="2.5" fill="black" fill-opacity="0.2"/>
<circle cx="782.5" cy="327.5" r="2.5" fill="black" fill-opacity="0.2"/>
<circle cx="847.5" cy="327.5" r="2.5" fill="black" fill-opacity="0.2"/>
<circle cx="912.5" cy="327.5" r="2.5" fill="black" fill-opacity="0.2"/>
<circle cx="977.5" cy="327.5" r="2.5" fill="black" fill-opacity="0.2"/>
<circle cx="1042.5" cy="327.5" r="2.5" fill="black" fill-opacity="0.2"/>
<circle cx="1107.5" cy="327.5" r="2.5" fill="black" fill-opacity="0.2"/>
<circle cx="1172.5" cy="327.5" r="2.5" fill="black" fill-opacity="0.2"/>
<circle cx="1237.5" cy="327.5" r="2.5" fill="black" fill-opacity="0.2"/>
<circle cx="1302.5" cy="327.5" r="2.5" fill="black" fill-opacity="0.2"/>
<circle cx="1367.5" cy="327.5" r="2.5" fill="black" fill-opacity="0.2"/>
<circle cx="1432.5" cy="327.5" r="2.5" fill="black" fill-opacity="0.2"/>
<circle cx="1497.5" cy="327.5" r="2.5" fill="black" fill-opacity="0.2"/>
<circle cx="1562.5" cy="327.5" r="2.5" fill="black" fill-opacity="0.2"/>
<circle cx="2.5" cy="392.5" r="2.5" fill="black" fill-opacity="0.2"/>
<circle cx="67.5" cy="392.5" r="2.5" fill="black" fill-opacity="0.2"/>
<circle cx="132.5" cy="392.5" r="2.5" fill="black" fill-opacity="0.2"/>
<circle cx="197.5" cy="392.5" r="2.5" fill="black" fill-opacity="0.2"/>
<circle cx="262.5" cy="392.5" r="2.5" fill="black" fill-opacity="0.2"/>
<circle cx="327.5" cy="392.5" r="2.5" fill="black" fill-opacity="0.2"/>
<circle cx="392.5" cy="392.5" r="2.5" fill="black" fill-opacity="0.2"/>
<circle cx="457.5" cy="392.5" r="2.5" fill="black" fill-opacity="0.2"/>
<circle cx="522.5" cy="392.5" r="2.5" fill="black" fill-opacity="0.2"/>
<circle cx="587.5" cy="392.5" r="2.5" fill="black" fill-opacity="0.2"/>
<circle cx="652.5" cy="392.5" r="2.5" fill="black" fill-opacity="0.2"/>
<circle cx="717.5" cy="392.5" r="2.5" fill="black" fill-opacity="0.2"/>
<circle cx="782.5" cy="392.5" r="2.5" fill="black" fill-opacity="0.2"/>
<circle cx="847.5" cy="392.5" r="2.5" fill="black" fill-opacity="0.2"/>
<circle cx="912.5" cy="392.5" r="2.5" fill="black" fill-opacity="0.2"/>
<circle cx="977.5" cy="392.5" r="2.5" fill="black" fill-opacity="0.2"/>
<circle cx="1042.5" cy="392.5" r="2.5" fill="black" fill-opacity="0.2"/>
<circle cx="1107.5" cy="392.5" r="2.5" fill="black" fill-opacity="0.2"/>
<circle cx="1172.5" cy="392.5" r="2.5" fill="black" fill-opacity="0.2"/>
<circle cx="1237.5" cy="392.5" r="2.5" fill="black" fill-opacity="0.2"/>
<circle cx="1302.5" cy="392.5" r="2.5" fill="black" fill-opacity="0.2"/>
<circle cx="1367.5" cy="392.5" r="2.5" fill="black" fill-opacity="0.2"/>
<circle cx="1432.5" cy="392.5" r="2.5" fill="black" fill-opacity="0.2"/>
<circle cx="1497.5" cy="392.5" r="2.5" fill="black" fill-opacity="0.2"/>
<circle cx="1562.5" cy="392.5" r="2.5" fill="black" fill-opacity="0.2"/>
<circle cx="2.5" cy="457.5" r="2.5" fill="black" fill-opacity="0.2"/>
<circle cx="67.5" cy="457.5" r="2.5" fill="black" fill-opacity="0.2"/>
<circle cx="132.5" cy="457.5" r="2.5" fill="black" fill-opacity="0.2"/>
<circle cx="197.5" cy="457.5" r="2.5" fill="black" fill-opacity="0.2"/>
<circle cx="262.5" cy="457.5" r="2.5" fill="black" fill-opacity="0.2"/>
<circle cx="327.5" cy="457.5" r="2.5" fill="black" fill-opacity="0.2"/>
<circle cx="392.5" cy="457.5" r="2.5" fill="black" fill-opacity="0.2"/>
<circle cx="457.5" cy="457.5" r="2.5" fill="black" fill-opacity="0.2"/>
<circle cx="522.5" cy="457.5" r="2.5" fill="black" fill-opacity="0.2"/>
<circle cx="587.5" cy="457.5" r="2.5" fill="black" fill-opacity="0.2"/>
<circle cx="652.5" cy="457.5" r="2.5" fill="black" fill-opacity="0.2"/>
<circle cx="717.5" cy="457.5" r="2.5" fill="black" fill-opacity="0.2"/>
<circle cx="782.5" cy="457.5" r="2.5" fill="black" fill-opacity="0.2"/>
<circle cx="847.5" cy="457.5" r="2.5" fill="black" fill-opacity="0.2"/>
<circle cx="912.5" cy="457.5" r="2.5" fill="black" fill-opacity="0.2"/>
<circle cx="977.5" cy="457.5" r="2.5" fill="black" fill-opacity="0.2"/>
<circle cx="1042.5" cy="457.5" r="2.5" fill="black" fill-opacity="0.2"/>
<circle cx="1107.5" cy="457.5" r="2.5" fill="black" fill-opacity="0.2"/>
<circle cx="1172.5" cy="457.5" r="2.5" fill="black" fill-opacity="0.2"/>
<circle cx="1237.5" cy="457.5" r="2.5" fill="black" fill-opacity="0.2"/>
<circle cx="1302.5" cy="457.5" r="2.5" fill="black" fill-opacity="0.2"/>
<circle cx="1367.5" cy="457.5" r="2.5" fill="black" fill-opacity="0.2"/>
<circle cx="1432.5" cy="457.5" r="2.5" fill="black" fill-opacity="0.2"/>
<circle cx="1497.5" cy="457.5" r="2.5" fill="black" fill-opacity="0.2"/>
<circle cx="1562.5" cy="457.5" r="2.5" fill="black" fill-opacity="0.2"/>
<circle cx="2.5" cy="522.5" r="2.5" fill="black" fill-opacity="0.2"/>
<circle cx="67.5" cy="522.5" r="2.5" fill="black" fill-opacity="0.2"/>
<circle cx="132.5" cy="522.5" r="2.5" fill="black" fill-opacity="0.2"/>
<circle cx="197.5" cy="522.5" r="2.5" fill="black" fill-opacity="0.2"/>
<circle cx="262.5" cy="522.5" r="2.5" fill="black" fill-opacity="0.2"/>
<circle cx="327.5" cy="522.5" r="2.5" fill="black" fill-opacity="0.2"/>
<circle cx="392.5" cy="522.5" r="2.5" fill="black" fill-opacity="0.2"/>
<circle cx="457.5" cy="522.5" r="2.5" fill="black" fill-opacity="0.2"/>
<circle cx="522.5" cy="522.5" r="2.5" fill="black" fill-opacity="0.2"/>
<circle cx="587.5" cy="522.5" r="2.5" fill="black" fill-opacity="0.2"/>
<circle cx="652.5" cy="522.5" r="2.5" fill="black" fill-opacity="0.2"/>
<circle cx="717.5" cy="522.5" r="2.5" fill="black" fill-opacity="0.2"/>
<circle cx="782.5" cy="522.5" r="2.5" fill="black" fill-opacity="0.2"/>
<circle cx="847.5" cy="522.5" r="2.5" fill="black" fill-opacity="0.2"/>
<circle cx="912.5" cy="522.5" r="2.5" fill="black" fill-opacity="0.2"/>
<circle cx="977.5" cy="522.5" r="2.5" fill="black" fill-opacity="0.2"/>
<circle cx="1042.5" cy="522.5" r="2.5" fill="black" fill-opacity="0.2"/>
<circle cx="1107.5" cy="522.5" r="2.5" fill="black" fill-opacity="0.2"/>
<circle cx="1172.5" cy="522.5" r="2.5" fill="black" fill-opacity="0.2"/>
<circle cx="1237.5" cy="522.5" r="2.5" fill="black" fill-opacity="0.2"/>
<circle cx="1302.5" cy="522.5" r="2.5" fill="black" fill-opacity="0.2"/>
<circle cx="1367.5" cy="522.5" r="2.5" fill="black" fill-opacity="0.2"/>
<circle cx="1432.5" cy="522.5" r="2.5" fill="black" fill-opacity="0.2"/>
<circle cx="1497.5" cy="522.5" r="2.5" fill="black" fill-opacity="0.2"/>
<circle cx="1562.5" cy="522.5" r="2.5" fill="black" fill-opacity="0.2"/>
<circle cx="2.5" cy="587.5" r="2.5" fill="black" fill-opacity="0.2"/>
<circle cx="67.5" cy="587.5" r="2.5" fill="black" fill-opacity="0.2"/>
<circle cx="132.5" cy="587.5" r="2.5" fill="black" fill-opacity="0.2"/>
<circle cx="197.5" cy="587.5" r="2.5" fill="black" fill-opacity="0.2"/>
<circle cx="262.5" cy="587.5" r="2.5" fill="black" fill-opacity="0.2"/>
<circle cx="327.5" cy="587.5" r="2.5" fill="black" fill-opacity="0.2"/>
<circle cx="392.5" cy="587.5" r="2.5" fill="black" fill-opacity="0.2"/>
<circle cx="457.5" cy="587.5" r="2.5" fill="black" fill-opacity="0.2"/>
<circle cx="522.5" cy="587.5" r="2.5" fill="black" fill-opacity="0.2"/>
<circle cx="587.5" cy="587.5" r="2.5" fill="black" fill-opacity="0.2"/>
<circle cx="652.5" cy="587.5" r="2.5" fill="black" fill-opacity="0.2"/>
<circle cx="717.5" cy="587.5" r="2.5" fill="black" fill-opacity="0.2"/>
<circle cx="782.5" cy="587.5" r="2.5" fill="black" fill-opacity="0.2"/>
<circle cx="847.5" cy="587.5" r="2.5" fill="black" fill-opacity="0.2"/>
<circle cx="912.5" cy="587.5" r="2.5" fill="black" fill-opacity="0.2"/>
<circle cx="977.5" cy="587.5" r="2.5" fill="black" fill-opacity="0.2"/>
<circle cx="1042.5" cy="587.5" r="2.5" fill="black" fill-opacity="0.2"/>
<circle cx="1107.5" cy="587.5" r="2.5" fill="black" fill-opacity="0.2"/>
<circle cx="1172.5" cy="587.5" r="2.5" fill="black" fill-opacity="0.2"/>
<circle cx="1237.5" cy="587.5" r="2.5" fill="black" fill-opacity="0.2"/>
<circle cx="1302.5" cy="587.5" r="2.5" fill="black" fill-opacity="0.2"/>
<circle cx="1367.5" cy="587.5" r="2.5" fill="black" fill-opacity="0.2"/>
<circle cx="1432.5" cy="587.5" r="2.5" fill="black" fill-opacity="0.2"/>
<circle cx="1497.5" cy="587.5" r="2.5" fill="black" fill-opacity="0.2"/>
<circle cx="1562.5" cy="587.5" r="2.5" fill="black" fill-opacity="0.2"/>
<circle cx="2.5" cy="652.5" r="2.5" fill="black" fill-opacity="0.2"/>
<circle cx="67.5" cy="652.5" r="2.5" fill="black" fill-opacity="0.2"/>
<circle cx="132.5" cy="652.5" r="2.5" fill="black" fill-opacity="0.2"/>
<circle cx="197.5" cy="652.5" r="2.5" fill="black" fill-opacity="0.2"/>
<circle cx="262.5" cy="652.5" r="2.5" fill="black" fill-opacity="0.2"/>
<circle cx="327.5" cy="652.5" r="2.5" fill="black" fill-opacity="0.2"/>
<circle cx="392.5" cy="652.5" r="2.5" fill="black" fill-opacity="0.2"/>
<circle cx="457.5" cy="652.5" r="2.5" fill="black" fill-opacity="0.2"/>
<circle cx="522.5" cy="652.5" r="2.5" fill="black" fill-opacity="0.2"/>
<circle cx="587.5" cy="652.5" r="2.5" fill="black" fill-opacity="0.2"/>
<circle cx="652.5" cy="652.5" r="2.5" fill="black" fill-opacity="0.2"/>
<circle cx="717.5" cy="652.5" r="2.5" fill="black" fill-opacity="0.2"/>
<circle cx="782.5" cy="652.5" r="2.5" fill="black" fill-opacity="0.2"/>
<circle cx="847.5" cy="652.5" r="2.5" fill="black" fill-opacity="0.2"/>
<circle cx="912.5" cy="652.5" r="2.5" fill="black" fill-opacity="0.2"/>
<circle cx="977.5" cy="652.5" r="2.5" fill="black" fill-opacity="0.2"/>
<circle cx="1042.5" cy="652.5" r="2.5" fill="black" fill-opacity="0.2"/>
<circle cx="1107.5" cy="652.5" r="2.5" fill="black" fill-opacity="0.2"/>
<circle cx="1172.5" cy="652.5" r="2.5" fill="black" fill-opacity="0.2"/>
<circle cx="1237.5" cy="652.5" r="2.5" fill="black" fill-opacity="0.2"/>
<circle cx="1302.5" cy="652.5" r="2.5" fill="black" fill-opacity="0.2"/>
<circle cx="1367.5" cy="652.5" r="2.5" fill="black" fill-opacity="0.2"/>
<circle cx="1432.5" cy="652.5" r="2.5" fill="black" fill-opacity="0.2"/>
<circle cx="1497.5" cy="652.5" r="2.5" fill="black" fill-opacity="0.2"/>
<circle cx="1562.5" cy="652.5" r="2.5" fill="black" fill-opacity="0.2"/>
<circle cx="2.5" cy="717.5" r="2.5" fill="black" fill-opacity="0.2"/>
<circle cx="67.5" cy="717.5" r="2.5" fill="black" fill-opacity="0.2"/>
<circle cx="132.5" cy="717.5" r="2.5" fill="black" fill-opacity="0.2"/>
<circle cx="197.5" cy="717.5" r="2.5" fill="black" fill-opacity="0.2"/>
<circle cx="262.5" cy="717.5" r="2.5" fill="black" fill-opacity="0.2"/>
<circle cx="327.5" cy="717.5" r="2.5" fill="black" fill-opacity="0.2"/>
<circle cx="392.5" cy="717.5" r="2.5" fill="black" fill-opacity="0.2"/>
<circle cx="457.5" cy="717.5" r="2.5" fill="black" fill-opacity="0.2"/>
<circle cx="522.5" cy="717.5" r="2.5" fill="black" fill-opacity="0.2"/>
<circle cx="587.5" cy="717.5" r="2.5" fill="black" fill-opacity="0.2"/>
<circle cx="652.5" cy="717.5" r="2.5" fill="black" fill-opacity="0.2"/>
<circle cx="717.5" cy="717.5" r="2.5" fill="black" fill-opacity="0.2"/>
<circle cx="782.5" cy="717.5" r="2.5" fill="black" fill-opacity="0.2"/>
<circle cx="847.5" cy="717.5" r="2.5" fill="black" fill-opacity="0.2"/>
<circle cx="912.5" cy="717.5" r="2.5" fill="black" fill-opacity="0.2"/>
<circle cx="977.5" cy="717.5" r="2.5" fill="black" fill-opacity="0.2"/>
<circle cx="1042.5" cy="717.5" r="2.5" fill="black" fill-opacity="0.2"/>
<circle cx="1107.5" cy="717.5" r="2.5" fill="black" fill-opacity="0.2"/>
<circle cx="1172.5" cy="717.5" r="2.5" fill="black" fill-opacity="0.2"/>
<circle cx="1237.5" cy="717.5" r="2.5" fill="black" fill-opacity="0.2"/>
<circle cx="1302.5" cy="717.5" r="2.5" fill="black" fill-opacity="0.2"/>
<circle cx="1367.5" cy="717.5" r="2.5" fill="black" fill-opacity="0.2"/>
<circle cx="1432.5" cy="717.5" r="2.5" fill="black" fill-opacity="0.2"/>
<circle cx="1497.5" cy="717.5" r="2.5" fill="black" fill-opacity="0.2"/>
<circle cx="1562.5" cy="717.5" r="2.5" fill="black" fill-opacity="0.2"/>
<circle cx="2.5" cy="782.5" r="2.5" fill="black" fill-opacity="0.2"/>
<circle cx="67.5" cy="782.5" r="2.5" fill="black" fill-opacity="0.2"/>
<circle cx="132.5" cy="782.5" r="2.5" fill="black" fill-opacity="0.2"/>
<circle cx="197.5" cy="782.5" r="2.5" fill="black" fill-opacity="0.2"/>
<circle cx="262.5" cy="782.5" r="2.5" fill="black" fill-opacity="0.2"/>
<circle cx="327.5" cy="782.5" r="2.5" fill="black" fill-opacity="0.2"/>
<circle cx="392.5" cy="782.5" r="2.5" fill="black" fill-opacity="0.2"/>
<circle cx="457.5" cy="782.5" r="2.5" fill="black" fill-opacity="0.2"/>
<circle cx="522.5" cy="782.5" r="2.5" fill="black" fill-opacity="0.2"/>
<circle cx="587.5" cy="782.5" r="2.5" fill="black" fill-opacity="0.2"/>
<circle cx="652.5" cy="782.5" r="2.5" fill="black" fill-opacity="0.2"/>
<circle cx="717.5" cy="782.5" r="2.5" fill="black" fill-opacity="0.2"/>
<circle cx="782.5" cy="782.5" r="2.5" fill="black" fill-opacity="0.2"/>
<circle cx="847.5" cy="782.5" r="2.5" fill="black" fill-opacity="0.2"/>
<circle cx="912.5" cy="782.5" r="2.5" fill="black" fill-opacity="0.2"/>
<circle cx="977.5" cy="782.5" r="2.5" fill="black" fill-opacity="0.2"/>
<circle cx="1042.5" cy="782.5" r="2.5" fill="black" fill-opacity="0.2"/>
<circle cx="1107.5" cy="782.5" r="2.5" fill="black" fill-opacity="0.2"/>
<circle cx="1172.5" cy="782.5" r="2.5" fill="black" fill-opacity="0.2"/>
<circle cx="1237.5" cy="782.5" r="2.5" fill="black" fill-opacity="0.2"/>
<circle cx="1302.5" cy="782.5" r="2.5" fill="black" fill-opacity="0.2"/>
<circle cx="1367.5" cy="782.5" r="2.5" fill="black" fill-opacity="0.2"/>
<circle cx="1432.5" cy="782.5" r="2.5" fill="black" fill-opacity="0.2"/>
<circle cx="1497.5" cy="782.5" r="2.5" fill="black" fill-opacity="0.2"/>
<circle cx="1562.5" cy="782.5" r="2.5" fill="black" fill-opacity="0.2"/>
<circle cx="2.5" cy="847.5" r="2.5" fill="black" fill-opacity="0.2"/>
<circle cx="67.5" cy="847.5" r="2.5" fill="black" fill-opacity="0.2"/>
<circle cx="132.5" cy="847.5" r="2.5" fill="black" fill-opacity="0.2"/>
<circle cx="197.5" cy="847.5" r="2.5" fill="black" fill-opacity="0.2"/>
<circle cx="262.5" cy="847.5" r="2.5" fill="black" fill-opacity="0.2"/>
<circle cx="327.5" cy="847.5" r="2.5" fill="black" fill-opacity="0.2"/>
<circle cx="392.5" cy="847.5" r="2.5" fill="black" fill-opacity="0.2"/>
<circle cx="457.5" cy="847.5" r="2.5" fill="black" fill-opacity="0.2"/>
<circle cx="522.5" cy="847.5" r="2.5" fill="black" fill-opacity="0.2"/>
<circle cx="587.5" cy="847.5" r="2.5" fill="black" fill-opacity="0.2"/>
<circle cx="652.5" cy="847.5" r="2.5" fill="black" fill-opacity="0.2"/>
<circle cx="717.5" cy="847.5" r="2.5" fill="black" fill-opacity="0.2"/>
<circle cx="782.5" cy="847.5" r="2.5" fill="black" fill-opacity="0.2"/>
<circle cx="847.5" cy="847.5" r="2.5" fill="black" fill-opacity="0.2"/>
<circle cx="912.5" cy="847.5" r="2.5" fill="black" fill-opacity="0.2"/>
<circle cx="977.5" cy="847.5" r="2.5" fill="black" fill-opacity="0.2"/>
<circle cx="1042.5" cy="847.5" r="2.5" fill="black" fill-opacity="0.2"/>
<circle cx="1107.5" cy="847.5" r="2.5" fill="black" fill-opacity="0.2"/>
<circle cx="1172.5" cy="847.5" r="2.5" fill="black" fill-opacity="0.2"/>
<circle cx="1237.5" cy="847.5" r="2.5" fill="black" fill-opacity="0.2"/>
<circle cx="1302.5" cy="847.5" r="2.5" fill="black" fill-opacity="0.2"/>
<circle cx="1367.5" cy="847.5" r="2.5" fill="black" fill-opacity="0.2"/>
<circle cx="1432.5" cy="847.5" r="2.5" fill="black" fill-opacity="0.2"/>
<circle cx="1497.5" cy="847.5" r="2.5" fill="black" fill-opacity="0.2"/>
<circle cx="1562.5" cy="847.5" r="2.5" fill="black" fill-opacity="0.2"/>
<circle cx="2.5" cy="912.5" r="2.5" fill="black" fill-opacity="0.2"/>
<circle cx="67.5" cy="912.5" r="2.5" fill="black" fill-opacity="0.2"/>
<circle cx="132.5" cy="912.5" r="2.5" fill="black" fill-opacity="0.2"/>
<circle cx="197.5" cy="912.5" r="2.5" fill="black" fill-opacity="0.2"/>
<circle cx="262.5" cy="912.5" r="2.5" fill="black" fill-opacity="0.2"/>
<circle cx="327.5" cy="912.5" r="2.5" fill="black" fill-opacity="0.2"/>
<circle cx="392.5" cy="912.5" r="2.5" fill="black" fill-opacity="0.2"/>
<circle cx="457.5" cy="912.5" r="2.5" fill="black" fill-opacity="0.2"/>
<circle cx="522.5" cy="912.5" r="2.5" fill="black" fill-opacity="0.2"/>
<circle cx="587.5" cy="912.5" r="2.5" fill="black" fill-opacity="0.2"/>
<circle cx="652.5" cy="912.5" r="2.5" fill="black" fill-opacity="0.2"/>
<circle cx="717.5" cy="912.5" r="2.5" fill="black" fill-opacity="0.2"/>
<circle cx="782.5" cy="912.5" r="2.5" fill="black" fill-opacity="0.2"/>
<circle cx="847.5" cy="912.5" r="2.5" fill="black" fill-opacity="0.2"/>
<circle cx="912.5" cy="912.5" r="2.5" fill="black" fill-opacity="0.2"/>
<circle cx="977.5" cy="912.5" r="2.5" fill="black" fill-opacity="0.2"/>
<circle cx="1042.5" cy="912.5" r="2.5" fill="black" fill-opacity="0.2"/>
<circle cx="1107.5" cy="912.5" r="2.5" fill="black" fill-opacity="0.2"/>
<circle cx="1172.5" cy="912.5" r="2.5" fill="black" fill-opacity="0.2"/>
<circle cx="1237.5" cy="912.5" r="2.5" fill="black" fill-opacity="0.2"/>
<circle cx="1302.5" cy="912.5" r="2.5" fill="black" fill-opacity="0.2"/>
<circle cx="1367.5" cy="912.5" r="2.5" fill="black" fill-opacity="0.2"/>
<circle cx="1432.5" cy="912.5" r="2.5" fill="black" fill-opacity="0.2"/>
<circle cx="1497.5" cy="912.5" r="2.5" fill="black" fill-opacity="0.2"/>
<circle cx="1562.5" cy="912.5" r="2.5" fill="black" fill-opacity="0.2"/>
</g>
<defs>
<clipPath id="clip0_247_29279">
<rect width="1618" height="948" fill="white"/>
</clipPath>
</defs>
</svg>
