<svg width="462" height="380" viewBox="0 0 462 380" fill="none" xmlns="http://www.w3.org/2000/svg">
<path d="M453.683 156.988L453.68 157.001C444.037 198.204 425.867 232.199 394.904 274.809L394.898 274.818C379.591 296.14 361.08 319.562 339.685 338.696C318.282 357.838 294.123 372.571 267.529 376.733C240.923 380.896 211.397 374.524 181.656 361.691C151.936 348.866 122.159 329.656 95.1277 308.362L95.1224 308.358C67.898 287.059 43.4619 263.708 26.4529 239.886C9.42667 216.04 -0.00134468 191.946 2.35903 169.076C4.72103 146.19 19.0266 123.992 39.7818 103.759C60.5065 83.5551 87.4557 65.5132 114.661 50.9352L114.673 50.9285C168.661 21.5085 223.736 5.79039 282.909 2.58763L282.91 2.58759C312.329 0.985216 342.73 2.59131 369.597 8.25444C396.498 13.9249 419.649 23.6192 434.79 38.0313C449.692 52.3922 456.946 71.6516 459.203 92.627C461.462 113.615 458.7 136.2 453.683 156.988Z" fill="#FFFFA7" stroke="black" stroke-width="4"/>
</svg>
