<svg width="33" height="32" viewBox="0 0 33 32" fill="none" xmlns="http://www.w3.org/2000/svg">
<rect x="0.962891" width="6.84755" height="6.84774" fill="black"/>
<rect x="9.52344" width="6.84755" height="6.84774" fill="black"/>
<rect x="0.962891" y="8.55981" width="6.84755" height="6.84774" fill="black"/>
<rect x="9.52344" y="8.55981" width="6.84755" height="6.84774" fill="black"/>
<rect x="0.962891" y="16.5925" width="6.84755" height="6.84774" fill="black"/>
<rect x="9.52344" y="16.5925" width="6.84755" height="6.84774" fill="black"/>
<rect x="0.962891" y="25.1526" width="6.84755" height="6.84774" fill="black"/>
<rect x="9.52344" y="25.1526" width="6.84755" height="6.84774" fill="black"/>
<rect x="17.5557" width="6.84755" height="6.84774" fill="black"/>
<rect x="26.1162" width="6.84755" height="6.84774" fill="black"/>
<rect x="17.5557" y="8.55981" width="6.84755" height="6.84774" fill="black"/>
<rect x="26.1162" y="8.55981" width="6.84755" height="6.84774" fill="black"/>
<rect x="17.5557" y="16.5925" width="6.84755" height="6.84774" fill="black"/>
<rect x="26.1162" y="16.5925" width="6.84755" height="6.84774" fill="black"/>
<rect x="17.5557" y="25.1526" width="6.84755" height="6.84774" fill="black"/>
<rect x="26.1162" y="25.1526" width="6.84755" height="6.84774" fill="black"/>
</svg>
