<svg width="33" height="32" viewBox="0 0 33 32" fill="none" xmlns="http://www.w3.org/2000/svg">
<rect x="0.444336" width="5.47354" height="5.47368" fill="black"/>
<rect x="7.28711" width="5.47354" height="5.47368" fill="black"/>
<rect x="0.444336" y="6.84229" width="5.47354" height="5.47368" fill="black"/>
<rect x="7.28711" y="6.84229" width="5.47354" height="5.47368" fill="black"/>
<rect x="0.444336" y="13.2629" width="5.47354" height="5.47368" fill="black"/>
<rect x="7.28711" y="13.2629" width="5.47354" height="5.47368" fill="black"/>
<rect x="0.444336" y="20.1052" width="5.47354" height="5.47368" fill="black"/>
<rect x="7.28711" y="20.1052" width="5.47354" height="5.47368" fill="black"/>
<rect x="13.709" width="5.47354" height="5.47368" fill="black"/>
<rect x="20.5518" width="5.47354" height="5.47368" fill="black"/>
<rect x="13.709" y="6.84229" width="5.47354" height="5.47368" fill="black"/>
<rect x="20.5518" y="6.84229" width="5.47354" height="5.47368" fill="black"/>
<rect x="13.707" y="13.2629" width="5.47354" height="5.47368" fill="black"/>
<rect x="20.5498" y="13.2629" width="5.47354" height="5.47368" fill="black"/>
<rect x="13.707" y="20.1052" width="5.47354" height="5.47368" fill="black"/>
<rect x="20.5498" y="20.1052" width="5.47354" height="5.47368" fill="black"/>
<rect x="26.9707" width="5.47354" height="5.47368" fill="black"/>
<rect x="26.9707" y="6.63159" width="5.47354" height="5.47368" fill="black"/>
<rect x="26.9707" y="13.2629" width="5.47354" height="5.47368" fill="black"/>
<rect x="26.9707" y="19.8948" width="5.47354" height="5.47368" fill="black"/>
<rect x="0.444336" y="26.5264" width="5.47354" height="5.47368" fill="black"/>
<rect x="7.07617" y="26.5264" width="5.47354" height="5.47368" fill="black"/>
<rect x="13.707" y="26.5264" width="5.47354" height="5.47368" fill="black"/>
<rect x="20.3389" y="26.5264" width="5.47354" height="5.47368" fill="black"/>
<rect x="26.9707" y="26.5264" width="5.47354" height="5.47368" fill="black"/>
</svg>
