<svg width="32" height="32" viewBox="0 0 32 32" fill="none" xmlns="http://www.w3.org/2000/svg">
<rect width="4.43287" height="4.43291" fill="black"/>
<rect x="5.54102" width="4.43287" height="4.43291" fill="black"/>
<rect x="11.082" width="4.43287" height="4.43291" fill="black"/>
<rect y="5.54102" width="4.43287" height="4.43291" fill="black"/>
<rect x="5.54102" y="5.54102" width="4.43287" height="4.43291" fill="black"/>
<rect x="11.082" y="5.54102" width="4.43287" height="4.43291" fill="black"/>
<rect y="11.0823" width="4.43287" height="4.43291" fill="black"/>
<rect x="5.54102" y="11.0823" width="4.43287" height="4.43291" fill="black"/>
<rect x="11.082" y="11.0823" width="4.43287" height="4.43291" fill="black"/>
<rect x="16.4854" width="4.43287" height="4.43291" fill="black"/>
<rect x="22.0264" width="4.43287" height="4.43291" fill="black"/>
<rect x="27.5674" width="4.43287" height="4.43291" fill="black"/>
<rect x="16.4854" y="5.54102" width="4.43287" height="4.43291" fill="black"/>
<rect x="22.0264" y="5.54102" width="4.43287" height="4.43291" fill="black"/>
<rect x="27.5674" y="5.54102" width="4.43287" height="4.43291" fill="black"/>
<rect x="16.4854" y="11.0823" width="4.43287" height="4.43291" fill="black"/>
<rect x="22.0264" y="11.0823" width="4.43287" height="4.43291" fill="black"/>
<rect x="27.5674" y="11.0823" width="4.43287" height="4.43291" fill="black"/>
<rect y="16.4849" width="4.43287" height="4.43291" fill="black"/>
<rect x="5.54102" y="16.4849" width="4.43287" height="4.43291" fill="black"/>
<rect x="11.082" y="16.4849" width="4.43287" height="4.43291" fill="black"/>
<rect y="22.0259" width="4.43287" height="4.43291" fill="black"/>
<rect x="5.54102" y="22.0259" width="4.43287" height="4.43291" fill="black"/>
<rect x="11.082" y="22.0259" width="4.43287" height="4.43291" fill="black"/>
<rect y="27.5671" width="4.43287" height="4.43291" fill="black"/>
<rect x="5.54102" y="27.5671" width="4.43287" height="4.43291" fill="black"/>
<rect x="11.082" y="27.5671" width="4.43287" height="4.43291" fill="black"/>
<rect x="16.4854" y="16.4849" width="4.43287" height="4.43291" fill="black"/>
<rect x="22.0264" y="16.4849" width="4.43287" height="4.43291" fill="black"/>
<rect x="27.5674" y="16.4849" width="4.43287" height="4.43291" fill="black"/>
<rect x="16.4854" y="22.0259" width="4.43287" height="4.43291" fill="black"/>
<rect x="22.0264" y="22.0259" width="4.43287" height="4.43291" fill="black"/>
<rect x="27.5674" y="22.0259" width="4.43287" height="4.43291" fill="black"/>
<rect x="16.4854" y="27.5671" width="4.43287" height="4.43291" fill="black"/>
<rect x="22.0264" y="27.5671" width="4.43287" height="4.43291" fill="black"/>
<rect x="27.5674" y="27.5671" width="4.43287" height="4.43291" fill="black"/>
</svg>
