<svg width="32" height="32" viewBox="0 0 32 32" fill="none" xmlns="http://www.w3.org/2000/svg">
<rect width="3.81466" height="3.81476" fill="black"/>
<rect x="4.76855" width="3.81466" height="3.81476" fill="black"/>
<rect y="4.76855" width="3.81466" height="3.81476" fill="black"/>
<rect x="4.76855" y="4.76855" width="3.81466" height="3.81476" fill="black"/>
<rect y="9.24365" width="3.81466" height="3.81476" fill="black"/>
<rect x="4.76855" y="9.24365" width="3.81466" height="3.81476" fill="black"/>
<rect y="14.012" width="3.81466" height="3.81476" fill="black"/>
<rect x="4.76855" y="14.012" width="3.81466" height="3.81476" fill="black"/>
<rect x="9.24414" width="3.81466" height="3.81476" fill="black"/>
<rect x="14.0127" width="3.81466" height="3.81476" fill="black"/>
<rect x="9.24414" y="4.76855" width="3.81466" height="3.81476" fill="black"/>
<rect x="14.0127" y="4.76855" width="3.81466" height="3.81476" fill="black"/>
<rect x="9.24414" y="9.24341" width="3.81466" height="3.81476" fill="black"/>
<rect x="14.0127" y="9.24341" width="3.81466" height="3.81476" fill="black"/>
<rect x="9.24414" y="14.012" width="3.81466" height="3.81476" fill="black"/>
<rect x="14.0127" y="14.012" width="3.81466" height="3.81476" fill="black"/>
<rect x="18.9414" width="3.81466" height="3.81476" fill="black"/>
<rect x="23.71" width="3.81466" height="3.81476" fill="black"/>
<rect x="18.9414" y="4.76855" width="3.81466" height="3.81476" fill="black"/>
<rect x="23.71" y="4.76855" width="3.81466" height="3.81476" fill="black"/>
<rect x="18.9414" y="9.24365" width="3.81466" height="3.81476" fill="black"/>
<rect x="23.71" y="9.24365" width="3.81466" height="3.81476" fill="black"/>
<rect x="18.9414" y="14.012" width="3.81466" height="3.81476" fill="black"/>
<rect x="23.71" y="14.012" width="3.81466" height="3.81476" fill="black"/>
<rect x="28.1846" width="3.81466" height="3.81476" fill="black"/>
<rect x="28.1846" y="4.76855" width="3.81466" height="3.81476" fill="black"/>
<rect x="28.1846" y="9.24341" width="3.81466" height="3.81476" fill="black"/>
<rect x="28.1846" y="14.012" width="3.81466" height="3.81476" fill="black"/>
<rect y="18.9409" width="3.81466" height="3.81476" fill="black"/>
<rect x="4.76855" y="18.9409" width="3.81466" height="3.81476" fill="black"/>
<rect y="23.7095" width="3.81466" height="3.81476" fill="black"/>
<rect x="4.76855" y="23.7095" width="3.81466" height="3.81476" fill="black"/>
<rect y="28.1843" width="3.81466" height="3.81476" fill="black"/>
<rect x="4.76855" y="28.1843" width="3.81466" height="3.81476" fill="black"/>
<rect x="9.24414" y="18.9409" width="3.81466" height="3.81476" fill="black"/>
<rect x="14.0127" y="18.9409" width="3.81466" height="3.81476" fill="black"/>
<rect x="9.24414" y="23.7095" width="3.81466" height="3.81476" fill="black"/>
<rect x="14.0127" y="23.7095" width="3.81466" height="3.81476" fill="black"/>
<rect x="9.24414" y="28.1841" width="3.81466" height="3.81476" fill="black"/>
<rect x="14.0127" y="28.1841" width="3.81466" height="3.81476" fill="black"/>
<rect x="18.9414" y="18.9409" width="3.81466" height="3.81476" fill="black"/>
<rect x="23.71" y="18.9409" width="3.81466" height="3.81476" fill="black"/>
<rect x="18.9414" y="23.7095" width="3.81466" height="3.81476" fill="black"/>
<rect x="23.71" y="23.7095" width="3.81466" height="3.81476" fill="black"/>
<rect x="18.9414" y="28.1843" width="3.81466" height="3.81476" fill="black"/>
<rect x="23.71" y="28.1843" width="3.81466" height="3.81476" fill="black"/>
<rect x="28.1846" y="18.9409" width="3.81466" height="3.81476" fill="black"/>
<rect x="28.1846" y="23.7095" width="3.81466" height="3.81476" fill="black"/>
<rect x="28.1846" y="28.1841" width="3.81466" height="3.81476" fill="black"/>
</svg>
